<svg width="319" height="221" viewBox="0 0 319 221" fill="none" xmlns="http://www.w3.org/2000/svg">
<path d="M130.451 113.284V88.8225H118.996V84.5048H147.487V88.8225H135.991V113.284H130.451Z" fill="#00456A"/>
<path d="M153.928 113.284C152.67 113.284 151.537 113.284 150.571 112.379C149.563 111.432 149.48 110.118 149.48 109.008V88.6183C149.48 87.4674 149.859 86.3165 150.488 85.6186C151.454 84.5902 152.879 84.5085 154.012 84.5085H172.851V88.8262H156.99C156.486 88.8262 155.898 88.867 155.478 89.2383C155.016 89.6504 155.016 90.2258 155.016 90.6379V96.4332H172.427V100.751H155.016V107.493C155.016 107.946 155.182 108.399 155.436 108.603C155.773 108.933 156.444 108.974 157.323 108.974H173.014V113.292H153.924L153.928 113.284Z" fill="#00456A"/>
<path d="M187.204 87.4266C188.254 85.0023 189.386 84.1781 192.027 84.1781C194.668 84.1781 195.805 84.9986 196.851 87.4266L207.927 113.284H202.095L199.075 106.008H184.934L181.956 113.284H176.125L187.2 87.4266H187.204ZM186.363 102.143H197.651L192.869 90.4263C192.702 90.0142 192.406 89.2346 192.031 89.2346C191.656 89.2346 191.361 90.0142 191.194 90.4263L186.37 102.143H186.363Z" fill="#00456A"/>
<path d="M220.938 113.284C218.127 113.284 214.307 112.913 211.583 109.913C208.813 106.873 208.605 102.473 208.605 99.3067C208.605 95.1969 208.984 90.9609 211.458 88.1245C214.394 84.7535 218.968 84.5085 221.067 84.5085H232.859V88.8262H223.67C220.396 88.8262 217.63 89.0304 215.952 91.4992C215.069 92.7726 214.315 94.9519 214.315 99.2287C214.315 103.506 215.111 105.314 215.702 106.216C217.214 108.477 219.896 108.97 223.378 108.97H233.321V113.288H220.942L220.938 113.284Z" fill="#00456A"/>
<path d="M264.486 113.284H258.947V100.621H243.673V113.284H238.133V84.5085H243.673V96.307H258.947V84.5085H264.486V113.284Z" fill="#00456A"/>
<path d="M146.142 143.352C146.142 144.834 145.596 145.736 145.05 146.189C144.296 146.805 143.035 147.054 142.197 147.054H129.693C126.419 147.054 124.195 145.903 122.854 144.793C119.288 141.875 118.993 136.859 118.993 132.831C118.993 128.105 119.455 122.8 123.775 120.045C125.578 118.894 128.056 118.278 130.864 118.278H145.467V122.595H132.417C129.227 122.595 127.048 123.706 125.915 125.721C125.411 126.627 124.699 128.517 124.699 132.668C124.699 136.818 125.411 138.834 125.874 139.74C127.09 142.123 129.147 142.74 131.497 142.74H138.673C139.177 142.74 139.681 142.74 140.143 142.287C140.606 141.834 140.606 141.258 140.606 140.805V132.953H146.145V143.356L146.142 143.352Z" fill="#CA2611"/>
<path d="M160.559 121.196C161.609 118.772 162.742 117.947 165.383 117.947C168.024 117.947 169.16 118.768 170.206 121.196L181.282 147.054H175.45L172.43 139.777H158.289L155.311 147.054H149.48L160.555 121.196H160.559ZM159.718 135.912H171.006L166.224 124.196C166.057 123.783 165.761 123.004 165.386 123.004C165.011 123.004 164.716 123.783 164.549 124.196L159.725 135.912H159.718Z" fill="#CA2611"/>
<path d="M189.239 147.054V122.592H177.784V118.274H206.274V122.592H194.778V147.054H189.239Z" fill="#CA2611"/>
<path d="M213.64 147.054C212.382 147.054 211.25 147.054 210.283 146.148C209.275 145.201 209.192 143.887 209.192 142.777V122.388C209.192 121.237 209.571 120.086 210.2 119.388C211.166 118.359 212.591 118.278 213.724 118.278H232.563V122.595H216.702C216.198 122.595 215.611 122.636 215.19 123.008C214.728 123.42 214.728 123.995 214.728 124.403V130.199H232.139V134.516H214.728V141.258C214.728 141.711 214.895 142.164 215.149 142.368C215.486 142.699 216.156 142.74 217.035 142.74H232.726V147.057H213.637L213.64 147.054Z" fill="#CA2611"/>
<path d="M69.3972 69.0495V72.621L101.29 87.2447L91.086 90.56L69.3972 80.7069V87.111C70.568 87.1296 71.8601 87.4266 73.2242 88.0466C73.7433 88.2842 74.251 88.5589 74.7474 88.867C75.2362 89.1158 75.6947 89.4239 76.0926 89.8026C76.2252 89.9288 76.3464 90.0551 76.4639 90.1813C76.5018 90.1813 76.5397 90.1813 76.5776 90.1813C80.0938 93.1068 82.5908 97.5804 82.5908 101.49V136.425L105.973 147.046V85.6557L69.3972 69.0421V69.0495Z" fill="#00456A"/>
<path d="M82.5795 148.153L82.5915 148.157V148.108L82.5795 148.153Z" fill="black"/>
<path d="M105.935 146.961L91.0443 151.939L91.1277 90.5525L106.019 85.574L105.935 146.961Z" fill="#0B2838"/>
<path d="M73.6486 93.4929C68.8743 91.7368 65.1307 93.9569 65.1307 98.7461V139.235L70.6893 137.375V100.918C70.6893 97.1943 72.9552 95.0299 76.2062 95.0744C75.3234 94.3393 74.3913 93.8307 73.6448 93.4929H73.6486Z" fill="#CA2611"/>
<path d="M54.5137 73.9464V135.337L63.8614 139.584V97.8588C63.8614 92.7912 68.0559 90.5934 73.228 92.9508C73.8267 93.2219 74.4064 93.5523 74.971 93.9161C75.5848 94.2799 76.2328 94.7403 76.839 95.312C80.2151 98.2375 82.5946 102.581 82.5946 106.394V148.089L91.0936 151.951V90.56L54.5175 73.9464H54.5137Z" fill="#00456A"/>
</svg>
